<svg xmlns="http://www.w3.org/2000/svg" width="84" height="84" viewBox="0 0 84 84"><g><g><g><path fill="#ff699f" d="M82.36 33.884c.905 0 1.64.735 1.64 1.64v11.73c0 8.716-7.09 15.805-15.804 15.805h-4.632a34.645 34.645 0 0 1-7.596 8.477h15.235c.906 0 1.64.735 1.64 1.64 0 5.971-4.857 10.829-10.827 10.829H10.828C4.858 84.005 0 79.147 0 73.177c0-.906.735-1.64 1.64-1.64h11.298a34.633 34.633 0 0 1-8.118-9.323A34.412 34.412 0 0 1 0 44.63V30.41c0-.905.735-1.64 1.64-1.64h12.633a1.641 1.641 0 0 1 0 3.281H3.281V44.63c0 11.05 5.9 21.318 15.425 26.906H50.2c9.525-5.588 15.425-15.856 15.425-26.906V32.05H31.828a1.641 1.641 0 0 1 0-3.281h35.438c.905 0 1.64.735 1.64 1.64v3.474zm-20.344 46.84c3.598 0 6.616-2.532 7.366-5.907H3.462c.75 3.375 3.768 5.907 7.366 5.907zm6.89-36.996v.902c0 2.91-.367 5.795-1.083 8.585h.373a5.968 5.968 0 0 0 5.96-5.96v-3.527zm11.813 3.527v-10.09H68.906v3.281h6.89c.906 0 1.641.735 1.641 1.641v5.168c0 5.096-4.145 9.242-9.241 9.242h-1.391a34.326 34.326 0 0 1-1.402 3.28h2.793c6.905 0 12.523-5.617 12.523-12.522z"/></g><g><path fill="#ff699f" d="M33.453 11.123a5.588 5.588 0 0 1 .006 6.987l-.874 1.103a1.64 1.64 0 0 0 2.57 2.04l.875-1.102a8.855 8.855 0 0 0-.01-11.072l-.853-1.072a4.276 4.276 0 0 1-.005-5.347 1.64 1.64 0 1 0-2.57-2.039 7.545 7.545 0 0 0 .008 9.432z"/></g><g><path fill="#ff699f" d="M42.543 14.811a5.593 5.593 0 0 1 .006 6.99l-.874 1.102a1.64 1.64 0 0 0 2.57 2.04l.875-1.102a8.855 8.855 0 0 0-.01-11.072l-.853-1.072a4.276 4.276 0 0 1-.005-5.347 1.64 1.64 0 1 0-2.57-2.039 7.545 7.545 0 0 0 .008 9.432z"/></g><g><path fill="#ff699f" d="M24.363 14.813a5.59 5.59 0 0 1 .006 6.987l-.874 1.103a1.64 1.64 0 0 0 2.57 2.04l.875-1.102a8.855 8.855 0 0 0-.01-11.072l-.853-1.072a4.276 4.276 0 0 1-.005-5.347 1.64 1.64 0 1 0-2.57-2.039 7.545 7.545 0 0 0 .008 9.432z"/></g><g><path fill="#ff699f" d="M23.49 28.77c-.43 0-.854.176-1.16.48-.304.307-.48.73-.48 1.16 0 .432.176.855.48 1.162.306.305.73.48 1.16.48.432 0 .855-.175 1.16-.48a1.65 1.65 0 0 0 .481-1.161c0-.432-.174-.855-.48-1.16a1.653 1.653 0 0 0-1.16-.481z"/></g><g><path fill="#ff699f" d="M53.307 63.35c4.91-4.955 7.727-11.781 7.727-18.73a1.641 1.641 0 0 0-3.281 0c0 6.09-2.47 12.076-6.777 16.42a1.64 1.64 0 1 0 2.33 2.31z"/></g><g><path fill="#ff699f" d="M46.752 67.963c.273 0 .55-.07.804-.212l.038-.021a1.64 1.64 0 0 0-1.611-2.858l-.038.02a1.64 1.64 0 0 0 .807 3.07z"/></g></g></g></svg>