<svg xmlns="http://www.w3.org/2000/svg" width="94" height="97" viewBox="0 0 94 97"><g><g><g><path fill="#ff699f" d="M21.755 35.198a4.178 4.178 0 0 0-5.843.714 1.42 1.42 0 0 0 1.122 2.296c.423 0 .844-.188 1.125-.546a1.315 1.315 0 0 1 1.84-.225A1.43 1.43 0 0 0 22 37.192a1.415 1.415 0 0 0-.245-1.994z"/></g><g><path fill="#ff699f" d="M36.63 35.392a1.42 1.42 0 0 0-.245-1.994 4.178 4.178 0 0 0-5.843.714 1.42 1.42 0 0 0 1.122 2.296c.423 0 .844-.188 1.123-.546a1.315 1.315 0 0 1 1.84-.225 1.432 1.432 0 0 0 2.003-.245z"/></g><g><path fill="#ff699f" d="M22.096 44.53a2.135 2.135 0 0 1 .443-1.59 2.14 2.14 0 0 1 1.44-.812l8.186-1.002a2.16 2.16 0 0 1 2.41 1.877l.161 1.32c.422 3.43-2.032 6.561-5.472 6.982-3.44.42-6.582-2.025-7.004-5.454zm2.916.335l.078.639a3.434 3.434 0 0 0 6.816-.834l-.078-.638z"/></g><g><path fill="#ff699f" d="M46.287 15.159c.387-3.007-.054-6.065-1.245-8.61-1.4-2.987-3.78-5.217-6.885-6.448-.682-.271-1.46.02-1.794.67-1.534 2.975-5.238 5.093-9.91 5.665l-8.246 1.01a1.421 1.421 0 1 0 .348 2.82L26.8 9.258c5.016-.614 9.163-2.826 11.39-6.013 4.648 2.472 5.775 7.656 5.271 11.553-.524 4.05-2.66 7.097-5.196 7.407l-27.738 3.393c-2.301.283-3.945 2.378-3.662 4.672l.34 2.766-2.161.266-2.165-17.578c-.114-.93.14-1.85.72-2.59a3.51 3.51 0 0 1 2.348-1.324l6.918-.847a1.422 1.422 0 0 0 1.241-1.584 1.425 1.425 0 0 0-1.589-1.237l-6.918.847c-3.488.428-5.978 3.603-5.55 7.08l2.239 18.17a4.909 4.909 0 0 0-2.032 4.598 4.925 4.925 0 0 0 5.491 4.274l2.66-.325.26 2.116a16.614 16.614 0 0 0 6.327 11.147 16.694 16.694 0 0 0 10.302 3.55c.69 0 1.384-.041 2.08-.126a16.738 16.738 0 0 0 10.81-5.85c.506-.601.428-1.497-.176-2.003a1.429 1.429 0 0 0-2.01.176 13.85 13.85 0 0 1-3.941 3.234 13.866 13.866 0 0 1-5.033 1.62 13.87 13.87 0 0 1-10.278-2.842 13.8 13.8 0 0 1-5.253-9.255l-.435-3.527a1.423 1.423 0 0 0-1.59-1.238l-4.067.5a2.077 2.077 0 0 1-2.32-1.802 2.07 2.07 0 0 1 1.273-2.166l.004-.002a2.08 2.08 0 0 1 .53-.139l4.075-.498a1.423 1.423 0 0 0 1.241-1.584L9.69 29.92a1.355 1.355 0 0 1 1.18-1.506l26.322-3.22 1.969 15.974c.258 2.086.05 4.145-.62 6.125a1.42 1.42 0 0 0 1.352 1.873 1.43 1.43 0 0 0 1.351-.966 16.517 16.517 0 0 0 .749-7.379l-1.988-16.132c3.218-1.137 5.666-4.77 6.282-9.53z"/></g><g><path fill="#ff699f" d="M74.004 74.828a1.315 1.315 0 0 1 1.84.226 1.428 1.428 0 0 0 2.001.244c.62-.483.73-1.375.245-1.995a4.174 4.174 0 0 0-5.843-.714 1.419 1.419 0 0 0-.245 1.995c.485.62 1.38.727 2.002.244z"/></g><g><path fill="#ff699f" d="M57.617 70.798a1.419 1.419 0 0 0-.245 1.994 1.43 1.43 0 0 0 2.002.245 1.315 1.315 0 0 1 1.84.225 1.425 1.425 0 0 0 2.001.245c.62-.483.73-1.376.245-1.995a4.178 4.178 0 0 0-5.843-.714z"/></g><g><path fill="#ff699f" d="M70.019 79.529A2.16 2.16 0 0 1 71.9 81.93c-.17.634.092 3.452-2.531 5.494-4.366 3.399-10.794-.136-10.108-5.7.192-.887-.048-1.96.977-2.757a2.157 2.157 0 0 1 1.594-.442zm-1.034 2.735l-6.818-.833-.078.638a3.424 3.424 0 0 0 2.99 3.816 3.43 3.43 0 0 0 2.533-.701c1.417-1.103 1.291-2.617 1.373-2.92z"/></g><g><path fill="#ff699f" d="M92.65 48.778a6.338 6.338 0 0 0-4.247-2.395l-19.589-2.397A2.668 2.668 0 0 1 66.98 42.9a12.4 12.4 0 0 0-5.335-4.208c-.728-.3-1.56.046-1.86.771-.301.726.045 1.556.773 1.855a9.533 9.533 0 0 1 4.107 3.243 5.528 5.528 0 0 0 3.8 2.245l19.589 2.397a3.52 3.52 0 0 1 3.067 3.912l-2.165 17.58-2.16-.266.34-2.768c.283-2.294-1.361-4.391-3.663-4.672l-27.735-3.39a9.497 9.497 0 0 1-6.488-3.742 9.452 9.452 0 0 1-1.79-7.262c.679-4.164 4.096-7.427 8.314-7.933a1.42 1.42 0 1 0-.34-2.82c-5.47.655-9.907 4.89-10.789 10.298a12.248 12.248 0 0 0 2.325 9.424 12.311 12.311 0 0 0 7.015 4.601L52.006 78.22a16.56 16.56 0 0 0 .436 6.34 1.424 1.424 0 0 0 1.743 1.007 1.42 1.42 0 0 0 1.01-1.739 13.746 13.746 0 0 1-.358-5.263l1.969-15.973 26.32 3.221a1.355 1.355 0 0 1 1.181 1.506l-.515 4.178a1.423 1.423 0 0 0 1.241 1.584l4.076.498c.172.02.34.066.5.127a2.056 2.056 0 0 1 1.307 2.179 2.074 2.074 0 0 1-2.313 1.803l-4.075-.5a1.422 1.422 0 0 0-1.589 1.237l-.435 3.528a13.792 13.792 0 0 1-5.254 9.254 13.872 13.872 0 0 1-10.28 2.842A13.836 13.836 0 0 1 61.54 92.2a13.882 13.882 0 0 1-4.106-3.719 1.428 1.428 0 0 0-1.992-.305 1.417 1.417 0 0 0-.306 1.986 16.69 16.69 0 0 0 4.944 4.476 16.677 16.677 0 0 0 6.546 2.228c.696.086 1.39.127 2.08.127 3.723 0 7.319-1.227 10.301-3.55a16.618 16.618 0 0 0 6.328-11.147l.26-2.117c2.545.302 2.743.364 3.266.364a4.925 4.925 0 0 0 4.884-4.314 4.88 4.88 0 0 0-2.031-4.601L93.95 53.46a6.28 6.28 0 0 0-1.3-4.683z"/></g><g><path fill="#ff699f" d="M72.466 18.24c.786 0 1.425-.636 1.425-1.42v-3.48c0-.783-.639-1.42-1.425-1.42-.787 0-1.426.637-1.426 1.42v3.48c0 .784.637 1.42 1.426 1.42z"/></g><g><path fill="#ff699f" d="M72.466 28.93c.786 0 1.425-.636 1.425-1.42v-3.48c0-.783-.639-1.42-1.425-1.42-.787 0-1.426.637-1.426 1.42v3.48c0 .784.637 1.42 1.426 1.42z"/></g><g><path fill="#ff699f" d="M76.086 21.842h3.49c.786 0 1.425-.637 1.425-1.421S80.362 19 79.575 19h-3.49c-.786 0-1.425.637-1.425 1.42 0 .785.637 1.422 1.426 1.422z"/></g><g><path fill="#ff699f" d="M65.356 21.842h3.49c.786 0 1.425-.637 1.425-1.421S69.632 19 68.845 19h-3.49c-.786 0-1.425.637-1.425 1.42 0 .785.639 1.422 1.426 1.422z"/></g><g><path fill="#ff699f" d="M21.536 68.07c-.787 0-1.426.637-1.426 1.42v3.48c0 .784.639 1.42 1.426 1.42.786 0 1.425-.636 1.425-1.42v-3.48c0-.785-.639-1.42-1.425-1.42z"/></g><g><path fill="#ff699f" d="M21.536 78.76c-.787 0-1.426.637-1.426 1.42v3.48c0 .784.639 1.42 1.426 1.42.786 0 1.425-.636 1.425-1.42v-3.48c0-.783-.639-1.42-1.425-1.42z"/></g><g><path fill="#ff699f" d="M28.645 75.15h-3.49c-.786 0-1.425.637-1.425 1.42 0 .785.639 1.422 1.426 1.422h3.49c.786 0 1.425-.637 1.425-1.421s-.639-1.421-1.426-1.421z"/></g><g><path fill="#ff699f" d="M17.915 75.15h-3.49c-.786 0-1.425.637-1.425 1.42 0 .785.639 1.422 1.426 1.422h3.49c.786 0 1.425-.637 1.425-1.421s-.639-1.421-1.426-1.421z"/></g></g></g></svg>