<svg xmlns="http://www.w3.org/2000/svg" width="82" height="74" viewBox="0 0 82 74"><g><g><g><path fill="#ff699f" d="M55.413 11.259c0-.888-.717-1.609-1.601-1.609s-1.602.72-1.602 1.609c0 .888.718 1.608 1.602 1.608.884 0 1.601-.72 1.601-1.608z"/></g><g><path fill="#ff699f" d="M61.098 1.697c-.983 18.018 6.943 28.3 8.76 34.851 3.231 11.59-2.464 27.383-9.738 36.828-.303.394-.77.624-1.267.624h-35.7c-.495 0-.965-.23-1.267-.624-7.642-9.927-13.095-25.097-9.752-36.843 1.85-6.513 9.752-16.902 8.771-34.836-.024-.44.133-.872.436-1.193A1.595 1.595 0 0 1 22.504 0H59.5a1.604 1.604 0 0 1 1.598 1.697zM41.002 35.391c-7.94 0-15.78-1.75-22.784-5.07-.195.41-.39.81-.578 1.205-.75 1.557-1.422 2.953-1.962 4.453 9.156 3.46 17.756 10.916 25.324 16.701 7.535-5.76 16.161-13.24 25.316-16.7-.535-1.5-1.206-2.899-1.959-4.46-.189-.39-.381-.79-.575-1.2-7.002 3.321-14.842 5.071-22.782 5.071zM23.947 70.783H39.4V55.495c-7.697-5.855-15.915-13.062-24.587-16.407-1.577 8.048.884 20.617 9.134 31.695zm34.11 0c6.047-8.21 11.012-21.518 9.108-31.685-8.644 3.341-16.81 10.498-24.562 16.397v15.288zm-.223-67.566H24.17c.19 7.76-1.234 15.553-4.237 23.193-.128.325-.261.65-.398.976 6.59 3.136 13.979 4.788 21.468 4.788 7.489 0 14.877-1.652 21.467-4.788a46.62 46.62 0 0 1-.399-.98c-3.003-7.64-4.425-15.433-4.236-23.189z"/></g><g><path fill="#ff699f" d="M55.977 17.33a1.6 1.6 0 0 0-1.902-1.233 1.608 1.608 0 0 0-1.229 1.91 68.16 68.16 0 0 0 1.836 6.794 1.601 1.601 0 0 0 2.02 1.028 1.61 1.61 0 0 0 1.024-2.03 64.614 64.614 0 0 1-1.749-6.468z"/></g><g><path fill="#ff699f" d="M80.394 12.874h-9.907l3.672-3.689a1.615 1.615 0 0 0 0-2.274 1.598 1.598 0 0 0-2.264 0l-6.407 6.434a1.615 1.615 0 0 0 0 2.275l6.407 6.435c.624.627 1.64.627 2.264 0a1.615 1.615 0 0 0 0-2.275l-3.672-3.689h9.907c.884 0 1.602-.72 1.602-1.608 0-.888-.718-1.609-1.602-1.609z"/></g><g><path fill="#ff699f" d="M1.602 16.091h9.907l-3.673 3.69a1.615 1.615 0 0 0 0 2.274c.625.627 1.64.627 2.265 0l6.406-6.435a1.615 1.615 0 0 0 0-2.275l-6.406-6.434a1.598 1.598 0 0 0-2.265 0 1.615 1.615 0 0 0 0 2.274l3.673 3.689H1.602c-.884 0-1.602.72-1.602 1.609 0 .888.718 1.608 1.602 1.608z"/></g></g></g></svg>