<svg xmlns="http://www.w3.org/2000/svg" width="70" height="63" viewBox="0 0 70 63"><g><g><g><path fill="#ff699f" d="M28.31 29.563c0-4.05 3.197-7.333 7.141-7.333s7.141 3.283 7.141 7.333c0 4.05-3.197 7.333-7.14 7.333-3.945 0-7.142-3.283-7.142-7.333zm3.4.002c0 2.121 1.675 3.84 3.741 3.84s3.74-1.719 3.74-3.84c0-2.122-1.674-3.842-3.74-3.842-2.066 0-3.74 1.72-3.74 3.842z"/></g><g><path fill="#ff699f" d="M63.927 5.476c3.742.457 6.433 3.92 6.031 7.77l-3.91 35.437a7.304 7.304 0 0 1-2.464 4.713 8.366 8.366 0 0 1-3.23 1.397v1.397c0 3.84-3.4 6.808-7.141 6.808H6.546c-.084.002-.17 0-.257-.002C2.723 62.9-.092 59.852.002 56.19v-35.7c0-3.84 2.805-7.245 6.546-7.245h2.636l.849-7.157a6.674 6.674 0 0 1 2.465-4.54A6.267 6.267 0 0 1 17.514.066zM6.547 16.737c-1.869 0-3.144 1.833-3.143 3.754V45.37l11.22-8.38a7.413 7.413 0 0 1 9.436.348l9.35 8.468a4.247 4.247 0 0 0 5.015.436l18.53-11.086V20.491c-.128-2.05-1.742-3.669-3.74-3.754zm46.67 42.771c1.869 0 3.738-1.397 3.738-3.315V39.26l-16.745 9.95a7.579 7.579 0 0 1-4.081 1.135 7.864 7.864 0 0 1-5.014-1.92l-9.266-8.38a3.998 3.998 0 0 0-5.27-.262l-13.176 9.95v6.46a2.92 2.92 0 0 0-.003.267c.048 1.734 1.459 3.1 3.148 3.049zM66.56 12.809a.245.245 0 0 0 .003-.035c.178-1.92-1.194-3.624-3.063-3.806L17.174 3.47a3.835 3.835 0 0 0-2.55.698 4.033 4.033 0 0 0-1.275 2.27l-.765 6.807h40.63c3.874.09 7.008 3.268 7.142 7.245v30.813c0-.175.764-.35 1.104-.698a3.003 3.003 0 0 0 1.105-2.358z"/></g></g></g></svg>