<svg xmlns="http://www.w3.org/2000/svg" width="66" height="65" viewBox="0 0 66 65"><g><g><g><path fill="#ff699f" d="M48.349 55.928a4.351 4.351 0 0 1-2.03-.504l-12.916-6.79a.875.875 0 0 0-.81 0l-12.917 6.79a4.328 4.328 0 0 1-4.584-.332 4.323 4.323 0 0 1-1.731-4.255l2.466-14.38a.87.87 0 0 0-.25-.77L5.127 25.504a4.321 4.321 0 0 1-1.1-4.46 4.326 4.326 0 0 1 3.514-2.962l14.441-2.098a.874.874 0 0 0 .656-.476l6.459-13.083A4.32 4.32 0 0 1 32.997 0c1.67 0 3.165.93 3.904 2.425l6.458 13.082a.866.866 0 0 0 .655.476l14.441 2.098a4.326 4.326 0 0 1 3.514 2.961 4.323 4.323 0 0 1-1.1 4.46l-10.45 10.184a.87.87 0 0 0-.25.77l2.467 14.38a4.323 4.323 0 0 1-1.731 4.255 4.34 4.34 0 0 1-2.556.836zM32.997 45.053c.696 0 1.391.167 2.025.5l12.917 6.79a.85.85 0 0 0 .916-.066.848.848 0 0 0 .347-.851l-2.467-14.38a4.351 4.351 0 0 1 1.252-3.851L58.435 23.01c.349-.34.27-.737.22-.892a.85.85 0 0 0-.703-.592l-14.44-2.098a4.351 4.351 0 0 1-3.278-2.38L33.777 3.964a.847.847 0 0 0-.78-.484.85.85 0 0 0-.78.484l-6.46 13.083a4.35 4.35 0 0 1-3.276 2.38l-14.44 2.099a.847.847 0 0 0-.703.592.848.848 0 0 0 .22.892l10.45 10.184a4.35 4.35 0 0 1 1.252 3.852l-2.468 14.379a.848.848 0 0 0 .347.85.847.847 0 0 0 .917.066l12.916-6.789c.634-.332 1.33-.5 2.025-.5z"/></g><g><path fill="#ff699f" d="M50.47 8.114a1.742 1.742 0 0 1-1.408-2.764l1.849-2.543a1.742 1.742 0 0 1 2.818 2.046L51.88 7.397c-.342.47-.873.718-1.41.718z"/></g><g><path fill="#ff699f" d="M15.531 8.104c-.539 0-1.07-.248-1.41-.718l-1.849-2.542a1.741 1.741 0 1 1 2.818-2.047L16.94 5.34a1.741 1.741 0 0 1-1.408 2.764z"/></g><g><path fill="#ff699f" d="M1.741 42.305a1.741 1.741 0 0 1-.537-3.397l2.99-.972a1.742 1.742 0 0 1 1.077 3.31l-2.991.972c-.18.06-.361.087-.539.087z"/></g><g><path fill="#ff699f" d="M33.002 65.005c-.962 0-1.742-.78-1.742-1.74V60.12a1.742 1.742 0 0 1 3.483 0v3.143a1.743 1.743 0 0 1-1.741 1.741z"/></g><g><path fill="#ff699f" d="M64.263 42.303c-.178 0-.36-.027-.539-.085l-2.99-.971a1.74 1.74 0 1 1 1.076-3.311l2.99.972a1.74 1.74 0 0 1-.537 3.395z"/></g></g></g></svg>