<svg xmlns="http://www.w3.org/2000/svg" width="92" height="77" viewBox="0 0 92 77"><g><g><g><path fill="#ff699f" d="M60.285 30.707a1.794 1.794 0 0 1-1.733-1.312 1.774 1.774 0 0 1 1.266-2.177l.072-.02a1.795 1.795 0 0 1 2.19 1.27 1.773 1.773 0 0 1-1.281 2.165l-.045.012a1.805 1.805 0 0 1-.47.062z"/></g><g><path fill="#ff699f" d="M72.382 47.753a4.953 4.953 0 0 1-2.455-.655 4.85 4.85 0 0 1-2.296-2.958 1.775 1.775 0 0 1 1.27-2.174 1.797 1.797 0 0 1 2.2 1.256c.091.341.314.625.62.8.31.178.67.223 1.015.132.346-.091.633-.309.81-.615.18-.306.227-.661.133-1.003a1.775 1.775 0 0 1 1.27-2.175 1.797 1.797 0 0 1 2.199 1.256 4.785 4.785 0 0 1-.494 3.697 4.883 4.883 0 0 1-2.991 2.27 4.944 4.944 0 0 1-1.281.169z"/></g><g><path fill="#ff699f" d="M56.852 51.862a4.946 4.946 0 0 1-2.455-.654A4.843 4.843 0 0 1 52.1 48.25a1.775 1.775 0 0 1 1.27-2.175 1.799 1.799 0 0 1 2.2 1.256c.091.342.314.626.621.801.31.178.669.224 1.012.13.346-.09.633-.308.81-.614.18-.306.227-.661.132-1.003a1.776 1.776 0 0 1 1.27-2.174 1.799 1.799 0 0 1 2.2 1.256 4.785 4.785 0 0 1-.494 3.696 4.883 4.883 0 0 1-2.991 2.27c-.42.114-.85.17-1.28.17z"/></g><g><g><path fill="#ff699f" d="M67.668 63.496a7.407 7.407 0 0 1-3.678-.98 7.251 7.251 0 0 1-3.438-4.432 1.772 1.772 0 0 1 1.27-2.175 1.799 1.799 0 0 1 2.2 1.256 3.722 3.722 0 0 0 1.765 2.275c.877.5 1.896.635 2.875.375 2.017-.535 3.22-2.594 2.679-4.589a1.775 1.775 0 0 1 1.27-2.175 1.796 1.796 0 0 1 2.199 1.256c1.054 3.888-1.286 7.898-5.217 8.936a7.428 7.428 0 0 1-1.926.253z"/></g><g><path fill="#ff699f" d="M73.017 75.9a25.51 25.51 0 0 1-16.324-1.047 25.671 25.671 0 0 1-10.742-8.284 25.557 25.557 0 0 1-20.465 10.198C11.433 76.767 0 65.461 0 51.564 0 37.666 11.433 26.362 25.484 26.36c8.37 0 15.81 4.012 20.46 10.194a25.48 25.48 0 0 1 6.84-6.295 1.809 1.809 0 0 1 2.477.55c.53.83.28 1.926-.557 2.45a21.881 21.881 0 0 0-6.676 6.555 24.833 24.833 0 0 1 2.944 11.75c0 4.24-1.068 8.239-2.946 11.75 4.075 6.237 11.11 9.892 18.438 9.892 1.872 0 3.761-.238 5.626-.732 11.661-3.092 18.608-14.988 15.483-26.52-2.444-9.023-10.419-15.46-19.839-16.017a1.78 1.78 0 0 1-1.685-1.877 1.787 1.787 0 0 1 1.899-1.667c10.966.65 20.246 8.142 23.092 18.642 3.637 13.423-4.448 27.272-18.023 30.865zM47.38 51.566c0-11.94-9.82-21.653-21.894-21.653-12.074 0-21.896 9.714-21.896 21.653 0 11.938 9.822 21.65 21.896 21.65 12.072 0 21.894-9.712 21.894-21.65z"/></g></g><g><path fill="#ff699f" d="M20.576 49.576a1.785 1.785 0 0 1-1.796-1.775c0-.728-.599-1.32-1.335-1.32a1.33 1.33 0 0 0-1.335 1.32c0 .98-.803 1.775-1.795 1.775a1.785 1.785 0 0 1-1.795-1.775c0-2.685 2.21-4.871 4.925-4.871s4.926 2.186 4.926 4.87c0 .98-.806 1.776-1.795 1.776z"/></g><g><path fill="#ff699f" d="M36.656 49.576a1.785 1.785 0 0 1-1.796-1.775c0-.728-.599-1.32-1.335-1.32a1.33 1.33 0 0 0-1.335 1.32c0 .98-.803 1.775-1.795 1.775a1.785 1.785 0 0 1-1.795-1.775c0-2.685 2.21-4.871 4.925-4.871 2.718 0 4.926 2.186 4.926 4.87 0 .98-.804 1.776-1.795 1.776z"/></g><g><path fill="#ff699f" d="M25.488 63.664c-4.068 0-7.378-3.273-7.378-7.299 0-.98.803-1.775 1.795-1.775.992 0 1.795.794 1.795 1.775 0 2.066 1.699 3.748 3.788 3.748 2.089 0 3.788-1.68 3.788-3.748 0-.98.803-1.775 1.795-1.775.992 0 1.795.794 1.795 1.775 0 4.026-3.31 7.299-7.378 7.299z"/></g><g><path fill="#ff699f" d="M45.985 12.117a1.786 1.786 0 0 1-1.795-1.775V1.865c0-.98.803-1.775 1.795-1.775.992 0 1.795.794 1.795 1.775v8.477c0 .979-.803 1.775-1.795 1.775z"/></g><g><path fill="#ff699f" d="M45.985 19.61a1.83 1.83 0 0 1-1.27-.519 1.772 1.772 0 0 1-.525-1.256c0-.466.19-.925.525-1.256.334-.328.797-.519 1.27-.519a1.78 1.78 0 0 1 1.795 1.775c0 .468-.19.926-.525 1.256a1.83 1.83 0 0 1-1.27.52z"/></g><g><path fill="#ff699f" d="M36.726 16.535c-.46 0-.918-.173-1.27-.52l-5.95-5.884c-.701-.693-.701-1.818 0-2.51a1.809 1.809 0 0 1 2.54 0l5.95 5.885c.7.692.7 1.817 0 2.51a1.8 1.8 0 0 1-1.27.519z"/></g><g><path fill="#ff699f" d="M55.355 16.376c-.46 0-.918-.173-1.268-.519a1.763 1.763 0 0 1-.002-2.512L59.87 7.62a1.81 1.81 0 0 1 2.54 0 1.76 1.76 0 0 1 0 2.512l-5.785 5.725a1.8 1.8 0 0 1-1.27.52z"/></g></g></g></svg>