<svg xmlns="http://www.w3.org/2000/svg" width="92" height="70" viewBox="0 0 92 70"><g><g><path fill="#ff699f" d="M88.866 53.72a5.597 5.597 0 0 1 3.132 5.041v9.897c0 .74-.603 1.34-1.347 1.34s-1.348-.6-1.348-1.34v-9.897a2.94 2.94 0 0 0-1.644-2.645l-4.501-2.237-1.565 1.48a5.67 5.67 0 0 1-3.905 1.553 5.669 5.669 0 0 1-3.905-1.553l-1.565-1.48-2.086 1.037a7.052 7.052 0 0 1 1.702 4.585v9.157c0 .74-.604 1.34-1.348 1.34-.744 0-1.348-.6-1.348-1.34v-9.157a4.392 4.392 0 0 0-2.63-4.015l-7.703-3.383c-2.414 4.814-7.332 7.87-12.807 7.87A14.304 14.304 0 0 1 33.195 52.1l-7.705 3.385a4.392 4.392 0 0 0-2.63 4.015v9.157c0 .74-.604 1.34-1.348 1.34-.744 0-1.348-.6-1.348-1.34v-9.157a7.06 7.06 0 0 1 2.992-5.76l-1.365-.387c-.335-.096-.793-.225-1.253-.45l-3.439 3.42V68.66c0 .74-.604 1.34-1.348 1.34-.744 0-1.347-.6-1.347-1.34V56.324l-3.416-3.397c-.182.093-.372.17-.573.227l-5.563 1.581a2.973 2.973 0 0 0-2.157 2.843V68.66c0 .74-.603 1.34-1.347 1.34S0 69.4 0 68.66V57.578c0-2.503 1.69-4.733 4.113-5.421l5.563-1.581a.561.561 0 0 0 .408-.538v-1.935a10.433 10.433 0 0 1-4.321-8.452v-2.187l-.69-1.372a7.05 7.05 0 0 1-.752-3.161v-.08c0-4.687 3.835-8.502 8.55-8.502h12.706c.118-1.42.237-2.914.354-4.489.44-5.93 2.585-10.938 6.202-14.483C35.724 1.86 40.52 0 46 0c5.48 0 10.276 1.86 13.867 5.38 3.617 3.543 5.762 8.553 6.202 14.484.333 4.494.681 8.353 1.015 11.618a11.44 11.44 0 0 1 3.742-4.848 5.689 5.689 0 0 1-.246-1.66c0-3.504 3.189-6.354 7.108-6.354 3.919 0 7.108 2.85 7.108 6.354a5.75 5.75 0 0 1-.246 1.66c2.773 2.075 4.568 5.373 4.568 9.082 0 1.99-.53 3.946-1.538 5.677a9.889 9.889 0 0 1-4.223 6.804v2.729c0 .034.02.066.052.082zM73.287 25.228a11.41 11.41 0 0 1 4.4-.877c1.559 0 3.045.312 4.4.877.007-.084.014-.168.014-.254 0-2.026-1.98-3.674-4.413-3.674-2.433 0-4.413 1.648-4.413 3.674 0 .084.007.168.012.254zm-4.332 10.489c0 1.592.448 3.159 1.294 4.53.106.17.17.36.192.558.4 3.685 3.517 6.463 7.249 6.463 3.574 0 6.582-2.55 7.182-6.004-2.113-2.97-6.82-4.661-9.087-5.331-.26.645-.706 1.41-1.464 2.163a1.353 1.353 0 0 1-1.907 0 1.335 1.335 0 0 1 0-1.895c.985-.98 1.046-1.909 1.046-1.918a1.348 1.348 0 0 1 1.637-1.31c.325.072 7.056 1.587 10.884 5.452a8.511 8.511 0 0 0 .443-2.71c0-4.789-3.919-8.686-8.734-8.686-4.818 0-8.737 3.897-8.735 8.688zM28.62 20.06c-1.06 14.292-2.268 22.263-2.739 25.026-.007.04.008.06.033.076 1.28.824 4.06 2.364 8.402 3.519l2.223-.976c.555-.243.914-.79.914-1.394v-4.608c-4.33-2.795-7.202-7.644-7.202-13.149v-1.12c0-1.462.813-2.836 2.119-3.585 1.28-.732 2.963-2.074 3.712-4.311a1.35 1.35 0 0 1 1.705-.847c.707.234 1.088.993.852 1.695-1.019 3.036-3.24 4.823-4.925 5.788-.48.275-.767.747-.767 1.261v1.12c0 7.159 5.857 12.984 13.056 12.984 7.198 0 13.056-5.824 13.056-12.983v-2.513c0-.857-.361-1.661-.99-2.204-2.467-2.132-8.079-5.858-17.963-6.84a1.343 1.343 0 0 1-1.208-1.467 1.346 1.346 0 0 1 1.475-1.201C51 15.388 57.128 19.474 59.836 21.817a5.577 5.577 0 0 1 1.915 4.226v2.512c0 5.505-2.871 10.354-7.202 13.15v4.605c0 .603.358 1.151.913 1.394l2.223.976c4.34-1.154 7.121-2.693 8.402-3.518.025-.016.04-.034.033-.077-.47-2.763-1.679-10.734-2.739-25.026-.391-5.273-2.26-9.69-5.407-12.772C54.898 4.272 50.758 2.68 46 2.68s-8.898 1.592-11.974 4.607c-3.147 3.082-5.015 7.499-5.407 12.773zM8.456 39.653c0 4.08 3.172 7.494 7.07 7.608a7.265 7.265 0 0 0 5.305-2.044 7.181 7.181 0 0 0 2.216-5.207v-2.864c0-.207.048-.413.142-.599l.68-1.352a5.826 5.826 0 0 0 .619-2.604V27.03H12.87c-3.227 0-5.854 2.612-5.854 5.822v.08c0 .679.16 1.358.465 1.964l.832 1.654c.094.186.142.391.142.599zm4.323 9.822v.565c0 .268-.034.529-.097.78l3.071 3.054 3.057-3.04a3.742 3.742 0 0 1-.083-.794v-.538a10.062 10.062 0 0 1-3.281.441 9.57 9.57 0 0 1-2.667-.468zm8.642.565c0 .298 0 .421 1.112.738l4.257 1.21 3.775-1.659c-2.997-1.065-5.037-2.221-6.117-2.916a2.753 2.753 0 0 1-.977-1.094 10.063 10.063 0 0 1-2.05 1.874zm34.915.979l-1.963-.861a4.211 4.211 0 0 1-2.519-3.847v-3.217A15.74 15.74 0 0 1 46 44.216a15.74 15.74 0 0 1-5.854-1.122v3.217a4.204 4.204 0 0 1-2.52 3.847l-1.962.86A11.612 11.612 0 0 0 46 57.293c4.4 0 8.357-2.432 10.336-6.273zm11.259 2.015c.05.022.099.049.149.072l4.223-2.1a.09.09 0 0 0 .052-.082v-2.727a9.933 9.933 0 0 1-3.274-3.748l.032.189a2.749 2.749 0 0 1-1.225 2.775c-1.082.697-3.12 1.853-6.117 2.916zm8.044.383a2.986 2.986 0 0 0 4.097 0l1.253-1.183a2.769 2.769 0 0 1-.327-1.308V49.5c-.942.291-1.94.448-2.974.448-1.035 0-2.032-.157-2.974-.448v1.426c0 .468-.115.915-.327 1.308z"/></g></g></svg>